<svg width="72" height="72" viewBox="0 0 72 72" fill="none" xmlns="http://www.w3.org/2000/svg">
<path d="M36 9C30.6599 9 25.4397 10.5835 20.9996 13.5503C16.5595 16.5171 13.0988 20.7339 11.0553 25.6675C9.0117 30.6012 8.47701 36.03 9.51881 41.2674C10.5606 46.5049 13.1321 51.3159 16.9081 55.0919C20.6841 58.8679 25.4951 61.4394 30.7326 62.4812C35.9701 63.523 41.3989 62.9883 46.3325 60.9447C51.2661 58.9012 55.4829 55.4405 58.4497 51.0004C61.4165 46.5603 63 41.3401 63 36C63 28.8392 60.1554 21.9716 55.0919 16.9081C50.0284 11.8446 43.1609 9 36 9ZM13.5 36C13.4955 30.8113 15.2988 25.7831 18.6 21.78L50.22 53.4C46.9277 56.1004 42.9358 57.8098 38.7094 58.3289C34.483 58.848 30.1961 58.1556 26.348 56.3322C22.5 54.5088 19.2493 51.6295 16.9747 48.0298C14.7 44.4301 13.495 40.2582 13.5 36ZM53.4 50.22L21.78 18.6C26.0927 15.0707 31.563 13.2699 37.1288 13.5472C42.6946 13.8245 47.9588 16.1601 51.8994 20.1007C55.8399 24.0412 58.1755 29.3054 58.4528 34.8712C58.7301 40.437 56.9293 45.9073 53.4 50.22Z" fill="#3B82F6"/>
</svg>
