<svg width="16" height="19" viewBox="0 0 16 19" fill="none" xmlns="http://www.w3.org/2000/svg">
<path d="M12.75 2H11.5V0.75C11.5 0.551088 11.421 0.360322 11.2803 0.21967C11.1397 0.0790175 10.9489 0 10.75 0C10.5511 0 10.3603 0.0790175 10.2197 0.21967C10.079 0.360322 10 0.551088 10 0.75V2H5.5V0.75C5.5 0.551088 5.42098 0.360322 5.28033 0.21967C5.13968 0.0790175 4.94891 0 4.75 0C4.55109 0 4.36032 0.0790175 4.21967 0.21967C4.07902 0.360322 4 0.551088 4 0.75V2H2.75C2.02065 2 1.32118 2.28973 0.805456 2.80546C0.289731 3.32118 0 4.02065 0 4.75V15.75C0 16.4793 0.289731 17.1788 0.805456 17.6945C1.32118 18.2103 2.02065 18.5 2.75 18.5H12.75C13.4793 18.5 14.1788 18.2103 14.6945 17.6945C15.2103 17.1788 15.5 16.4793 15.5 15.75V4.75C15.5 4.02065 15.2103 3.32118 14.6945 2.80546C14.1788 2.28973 13.4793 2 12.75 2ZM2.75 3.5H4V4.75C4 4.94891 4.07902 5.13968 4.21967 5.28033C4.36032 5.42098 4.55109 5.5 4.75 5.5C4.94891 5.5 5.13968 5.42098 5.28033 5.28033C5.42098 5.13968 5.5 4.94891 5.5 4.75V3.5H10V4.75C10 4.94891 10.079 5.13968 10.2197 5.28033C10.3603 5.42098 10.5511 5.5 10.75 5.5C10.9489 5.5 11.1397 5.42098 11.2803 5.28033C11.421 5.13968 11.5 4.94891 11.5 4.75V3.5H12.75C13.0815 3.5 13.3995 3.6317 13.6339 3.86612C13.8683 4.10054 14 4.41848 14 4.75V7.5H1.5V4.75C1.5 4.41848 1.6317 4.10054 1.86612 3.86612C2.10054 3.6317 2.41848 3.5 2.75 3.5ZM12.75 17H2.75C2.41848 17 2.10054 16.8683 1.86612 16.6339C1.6317 16.3995 1.5 16.0815 1.5 15.75V9H14V15.75C14 16.0815 13.8683 16.3995 13.6339 16.6339C13.3995 16.8683 13.0815 17 12.75 17Z" fill="#64748B"/>
</svg>
