<svg width="20" height="20" viewBox="0 0 20 20" fill="none" xmlns="http://www.w3.org/2000/svg">
<path d="M3.50834 17.1C3.42814 17.1008 3.34857 17.0858 3.2742 17.0558C3.19983 17.0257 3.13214 16.9813 3.07501 16.925C3.00951 16.8603 2.95912 16.7819 2.92742 16.6955C2.89573 16.6091 2.88352 16.5167 2.89168 16.425L3.15001 13.225C3.16109 13.0764 3.22632 12.937 3.33334 12.8333L12.55 3.61667C13.0636 3.13576 13.7468 2.87805 14.45 2.9C15.1486 2.90542 15.819 3.17655 16.325 3.65833C16.8103 4.15667 17.0894 4.81996 17.1064 5.51535C17.1234 6.21074 16.8771 6.88688 16.4167 7.40833L7.19168 16.6667C7.08843 16.7695 6.95323 16.8342 6.80834 16.85L3.56668 17.1417L3.50834 17.1ZM4.34168 13.55L4.16668 15.8333L6.45001 15.625L15.5333 6.525C15.7104 6.3154 15.8237 6.05936 15.8595 5.78731C15.8954 5.51526 15.8524 5.23864 15.7357 4.99029C15.619 4.74194 15.4334 4.53232 15.2011 4.38632C14.9688 4.24032 14.6994 4.16409 14.425 4.16667C14.2447 4.15522 14.0639 4.18031 13.8935 4.24046C13.723 4.3006 13.5665 4.39455 13.4333 4.51667L4.34168 13.55Z" fill="#3B82F6"/>
</svg>
