<svg width="24" height="24" viewBox="0 0 24 24" fill="none" xmlns="http://www.w3.org/2000/svg">
<path d="M21.12 9.88C21.0781 9.74714 20.9996 9.62879 20.8935 9.53856C20.7873 9.44834 20.6579 9.38992 20.52 9.37L15.1 8.58L12.67 3.67C12.6008 3.55397 12.5027 3.4579 12.3853 3.39117C12.2678 3.32445 12.1351 3.28938 12 3.28938C11.8649 3.28938 11.7322 3.32445 11.6147 3.39117C11.4973 3.4579 11.3992 3.55397 11.33 3.67L8.9 8.58L3.48 9.37C3.34213 9.38992 3.21268 9.44834 3.10653 9.53856C3.00039 9.62879 2.92187 9.74714 2.88 9.88C2.83531 10.0124 2.82848 10.1546 2.86028 10.2907C2.89208 10.4267 2.96126 10.5512 3.06 10.65L7 14.47L6.07 19.87C6.04643 20.009 6.06201 20.1519 6.11499 20.2826C6.16797 20.4133 6.25627 20.5266 6.37 20.61C6.48392 20.6912 6.61827 20.7389 6.75787 20.7477C6.89747 20.7565 7.03676 20.7262 7.16 20.66L12 18.11L16.85 20.66C16.9573 20.7189 17.0776 20.7498 17.2 20.75C17.3573 20.7482 17.5106 20.6994 17.64 20.61C17.7537 20.5266 17.842 20.4133 17.895 20.2826C17.948 20.1519 17.9636 20.009 17.94 19.87L17 14.47L20.93 10.65C21.0305 10.5522 21.1015 10.4283 21.1351 10.2922C21.1687 10.1561 21.1635 10.0133 21.12 9.88Z" fill="#F59E0B"/>
</svg>
