<svg width="20" height="20" viewBox="0 0 20 20" fill="none" xmlns="http://www.w3.org/2000/svg">
<path d="M16.6666 7.25H3.33331C3.25124 7.25 3.16996 7.23383 3.09414 7.20243C3.01831 7.17102 2.94941 7.12498 2.89137 7.06694C2.83333 7.00891 2.7873 6.94001 2.75589 6.86418C2.72448 6.78835 2.70831 6.70708 2.70831 6.625C2.70831 6.54292 2.72448 6.46165 2.75589 6.38582C2.7873 6.30999 2.83333 6.2411 2.89137 6.18306C2.94941 6.12502 3.01831 6.07898 3.09414 6.04758C3.16996 6.01617 3.25124 6 3.33331 6H16.6666C16.8324 6 16.9914 6.06585 17.1086 6.18306C17.2258 6.30027 17.2916 6.45924 17.2916 6.625C17.2916 6.79076 17.2258 6.94973 17.1086 7.06694C16.9914 7.18415 16.8324 7.25 16.6666 7.25Z" fill="#EF4444"/>
<path d="M13.7 17.2917H6.29996C6.03587 17.3097 5.77082 17.2752 5.52018 17.1901C5.26954 17.1049 5.0383 16.9709 4.83986 16.7957C4.64141 16.6205 4.47972 16.4076 4.36416 16.1695C4.24859 15.9314 4.18145 15.6726 4.16663 15.4083V6.66667C4.16663 6.50091 4.23247 6.34194 4.34968 6.22473C4.46689 6.10752 4.62587 6.04167 4.79163 6.04167C4.95739 6.04167 5.11636 6.10752 5.23357 6.22473C5.35078 6.34194 5.41663 6.50091 5.41663 6.66667V15.4083C5.41663 15.75 5.80829 16.0417 6.24996 16.0417H13.65C14.1166 16.0417 14.4833 15.75 14.4833 15.4083V6.66667C14.4833 6.48765 14.5544 6.31596 14.681 6.18938C14.8076 6.06279 14.9793 5.99167 15.1583 5.99167C15.3373 5.99167 15.509 6.06279 15.6356 6.18938C15.7622 6.31596 15.8333 6.48765 15.8333 6.66667V15.4083C15.8185 15.6726 15.7513 15.9314 15.6358 16.1695C15.5202 16.4076 15.3585 16.6205 15.1601 16.7957C14.9616 16.9709 14.7304 17.1049 14.4797 17.1901C14.2291 17.2752 13.964 17.3097 13.7 17.2917ZM13.8 6.45834C13.7176 6.45946 13.6358 6.44406 13.5595 6.41305C13.4831 6.38204 13.4138 6.33604 13.3555 6.27778C13.2973 6.21952 13.2513 6.15017 13.2203 6.07384C13.1892 5.9975 13.1738 5.91573 13.175 5.83334V4.59167C13.175 4.25001 12.775 3.95834 12.3416 3.95834H7.68329C7.22496 3.95834 6.84996 4.25001 6.84996 4.59167V5.83334C6.84996 5.9991 6.78411 6.15807 6.6669 6.27528C6.54969 6.39249 6.39072 6.45834 6.22496 6.45834C6.0592 6.45834 5.90023 6.39249 5.78302 6.27528C5.66581 6.15807 5.59996 5.9991 5.59996 5.83334V4.59167C5.63223 4.06777 5.86832 3.57731 6.2577 3.22531C6.64708 2.87331 7.1588 2.68775 7.68329 2.70834H12.3166C12.8453 2.681 13.3635 2.86352 13.7583 3.21622C14.1531 3.56891 14.3927 4.06324 14.425 4.59167V5.83334C14.4261 5.91612 14.4107 5.99829 14.3798 6.07508C14.3489 6.15187 14.303 6.22176 14.2449 6.28068C14.1867 6.3396 14.1175 6.38639 14.0411 6.41831C13.9647 6.45024 13.8827 6.46668 13.8 6.46667V6.45834Z" fill="#EF4444"/>
<path d="M8.51666 14.1667C8.35157 14.1645 8.19385 14.098 8.07711 13.9812C7.96036 13.8645 7.89382 13.7068 7.89166 13.5417V9.76666C7.89166 9.6009 7.95751 9.44193 8.07472 9.32472C8.19193 9.20751 8.3509 9.14166 8.51666 9.14166C8.68242 9.14166 8.84139 9.20751 8.9586 9.32472C9.07581 9.44193 9.14166 9.6009 9.14166 9.76666V13.5333C9.14277 13.6161 9.12742 13.6983 9.0965 13.7751C9.06559 13.8519 9.01972 13.9217 8.96158 13.9807C8.90343 14.0396 8.83416 14.0864 8.75778 14.1183C8.6814 14.1502 8.59944 14.1667 8.51666 14.1667Z" fill="#EF4444"/>
<path d="M11.4833 14.1667C11.3176 14.1667 11.1586 14.1008 11.0414 13.9836C10.9242 13.8664 10.8583 13.7074 10.8583 13.5417V9.76666C10.8583 9.6009 10.9242 9.44193 11.0414 9.32472C11.1586 9.20751 11.3176 9.14166 11.4833 9.14166C11.6491 9.14166 11.8081 9.20751 11.9253 9.32472C12.0425 9.44193 12.1083 9.6009 12.1083 9.76666V13.5333C12.1084 13.6999 12.0428 13.8597 11.9258 13.9782C11.8088 14.0968 11.6499 14.1645 11.4833 14.1667Z" fill="#EF4444"/>
</svg>
